<?xml version="1.0" encoding="UTF-8" standalone="no"?>
<svg width="17px" height="17px" viewBox="0 0 17 17" version="1.1" xmlns="http://www.w3.org/2000/svg" xmlns:xlink="http://www.w3.org/1999/xlink">
    <!-- Generator: Sketch 39.1 (31720) - http://www.bohemiancoding.com/sketch -->
    <title>Artboard Copy 43</title>
    <desc>Created with Sketch.</desc>
    <defs></defs>
    <g id="Page-1" stroke="none" stroke-width="1" fill="none" fill-rule="evenodd">
        <g id="Artboard-Copy-43">
            <g id="Group-9-Copy" transform="translate(0.500000, 1.500000)">
                <g id="Group-8-Copy-2" transform="translate(7.000000, 4.500000)"></g>
                <path d="M8.4993379,0.284444444 C8.39924756,0.100392157 8.19906688,0 7.99888621,0 C7.79870553,0 7.59852485,0.117124183 7.49843452,0.284444444 L0.0750677538,13.3688889 C-0.0250225846,13.5529412 -0.0250225846,13.7704575 0.0750677538,13.9377778 C0.175158092,14.105098 0.375338769,14.2222222 0.575519446,14.2222222 L15.4389347,14.2222222 C15.6391154,14.2222222 15.839296,14.1218301 15.9393864,13.9377778 C16.022795,13.7537255 16.022795,13.5362092 15.9227047,13.3688889 L8.4993379,0.284444444 Z" id="Shape-Copy-13" stroke="#DC3C1E" fill="#DC3C1E"></path>
                <path d="M9,12.5 L7,12.5 L7,10.8622551 L9,10.8622551 L9,12.5 Z M9,9.39404238 L7,9.39404238 L7,4.5 L9,4.5 L9,9.39404238 Z" id="Path" fill="#FFFFFF" transform="translate(8.000000, 8.500000) scale(1, -1) rotate(-180.000000) translate(-8.000000, -8.500000) "></path>
            </g>
        </g>
    </g>
</svg>